<svg id="Layer_2" data-name="Layer 2" xmlns="http://www.w3.org/2000/svg" width="32" height="32" viewBox="0 0 32 32">
  <g id="invisible_box" data-name="invisible box">
    <rect id="Rectangle_10" data-name="Rectangle 10" width="32" height="32" fill="none"/>
  </g>
  <g id="icons_Q2" data-name="icons Q2" transform="translate(1.333 1.333)">
    <path id="Path_22" data-name="Path 22" d="M15.333,15.333h-12A1.333,1.333,0,0,1,2,14H2A12.067,12.067,0,0,1,14,2h0a1.333,1.333,0,0,1,1.333,1.333Z" transform="translate(-2 -2)" fill="#9bc5ff"/>
    <path id="Path_23" data-name="Path 23" d="M22,34a11.933,11.933,0,0,1-8.867-3.933A12.333,12.333,0,0,1,10,21.733h0a1.067,1.067,0,0,1,1.067-1.067h9.6V11a1,1,0,0,1,1-1h0a12.667,12.667,0,0,1,8.6,3.267A12,12,0,0,1,22.533,34Z" transform="translate(-4.666 -4.666)" fill="#fff"/>
  </g>
</svg>
