<svg xmlns="http://www.w3.org/2000/svg" width="29.329" height="30.151" viewBox="0 0 29.329 30.151">
  <path id="Icon_material-settings" data-name="Icon material-settings" d="M29.275,19.553a11.749,11.749,0,0,0,.106-1.477,11.749,11.749,0,0,0-.106-1.477l3.181-2.487a.761.761,0,0,0,.181-.965L29.622,7.93A.758.758,0,0,0,28.7,7.6L24.948,9.106A11.014,11.014,0,0,0,22.4,7.628l-.573-4A.735.735,0,0,0,21.089,3h-6.03a.735.735,0,0,0-.739.633l-.573,4A11.582,11.582,0,0,0,11.2,9.106L7.445,7.6a.735.735,0,0,0-.92.332L3.511,13.146a.743.743,0,0,0,.181.965L6.872,16.6a11.956,11.956,0,0,0-.106,1.477,11.956,11.956,0,0,0,.106,1.477L3.691,22.041a.761.761,0,0,0-.181.965l3.015,5.216a.758.758,0,0,0,.92.332L11.2,27.046a11.014,11.014,0,0,0,2.548,1.477l.573,4a.735.735,0,0,0,.739.633h6.03a.735.735,0,0,0,.739-.633l.573-4a11.582,11.582,0,0,0,2.548-1.477L28.7,28.553a.735.735,0,0,0,.92-.332l3.015-5.216a.761.761,0,0,0-.181-.965l-3.181-2.487Zm-11.2,3.8a5.276,5.276,0,1,1,5.276-5.276A5.282,5.282,0,0,1,18.074,23.352Z" transform="translate(-3.406 -3)" fill="#9bc5ff"/>
</svg>
